<svg width="136" height="265" viewBox="0 0 136 265" fill="none" xmlns="http://www.w3.org/2000/svg">
<path d="M119.023 2.26229C126.424 4.24779 127.822 12.265 127.597 16.0254C130.485 18.5525 130.154 21.1396 129.627 22.1173C127.461 25.1858 124.964 24.9752 123.761 24.5992C124.122 23.3357 123.46 21.7413 123.31 20.9892C121.054 14.2204 110.825 14.5212 106.388 14.8973C108.373 11.2873 105.26 7.45164 102.327 7.45164C105.711 0.68288 109.772 -0.219593 119.023 2.26229Z" fill="#272523" stroke="black" stroke-width="0.902502"/>
<path d="M28.3216 230.144L18.1685 241.425V253.609H56.0736H77.2823L79.7642 251.804C79.9447 241.696 68.7086 237.514 63.068 236.687L62.3911 225.18H48.8492V230.144L41.8592 237.59L39.3773 230.144H28.3216Z" fill="#FF6F55"/>
<path d="M63.068 236.687L62.3911 225.18H48.8492V230.144L41.8592 237.59L39.3773 230.144H28.3216L18.1685 241.425V253.609H56.0736M63.068 236.687C61.639 236.311 58.6457 235.965 58.1042 237.59M63.068 236.687C68.7086 237.514 79.9447 241.696 79.7642 251.804L77.2823 253.609H56.0736M56.0736 253.609C56.8557 248.194 54.4761 237.68 38.7004 238.943" stroke="black" stroke-width="0.902502"/>
<path d="M17.9427 241.066V229.918H28.0958L17.9427 241.066Z" fill="black"/>
<path d="M41.859 238.041L48.8491 229.918H39.1515L41.859 238.041Z" fill="black"/>
<path d="M17.9427 241.066V229.918H28.0958L17.9427 241.066Z" stroke="black" stroke-width="0.902502"/>
<path d="M41.859 238.041L48.8491 229.918H39.1515L41.859 238.041Z" stroke="black" stroke-width="0.902502"/>
<path d="M7.11269 68.8217L17.4915 229.918H49.079L48.9828 224.954H62.8422L58.3297 75.5904L42.3103 83.7129L43.6597 60.1138L28.9941 52.4425L7.11269 68.8217Z" fill="#FEB326"/>
<path d="M48.9828 224.954L49.079 229.918H17.4915L7.11269 68.8217L28.9941 52.4425L43.6597 60.1138L42.3103 83.7129M48.9828 224.954L47.9509 171.707L46.8228 131.32L42.3103 83.7129M48.9828 224.954H62.8422L58.3297 75.5904L42.3103 83.7129" stroke="black" stroke-width="0.902502"/>
<path d="M99.6148 141.79C106.654 141.429 110.524 145.246 111.803 147.126C113.984 149.608 117.579 158.678 114.51 175.104C111.442 191.529 111.126 201.051 111.352 203.758C113.458 210.376 118.256 224.38 120.602 227.449C122.949 230.517 124.137 242.566 124.438 248.206C128.499 248.131 136.216 249.47 134.591 255.426C132.967 261.383 125.34 257.908 121.73 255.426L114.51 264H77.9591C75.1764 259.412 73.1758 250.327 87.4353 250.688C82.8476 244.596 75.7029 230.517 83.8254 222.936C81.4939 217.446 77.4627 203.713 79.9897 192.702C71.0399 190.672 51.8317 183.316 46.5972 170.14C44.6418 164.875 42.8969 155.474 51.5609 159.987C52.1626 154.647 55.0356 146.585 61.7141 157.054C62.5414 160.814 67.5352 168.515 80.8922 169.237C84.3491 167.357 91.2412 163.01 91.1542 160.664C87.9593 158.565 87.2824 153.104 87.4353 150.962C87.6158 148.435 90.3685 149.307 91.7222 150.059L89.466 141.26C88.2025 134.581 92.47 134.194 94.6511 135.021L99.6148 141.79Z" fill="#C39796"/>
<path d="M109.321 162.243C109.697 167.658 108.509 178.398 100.747 178.037C92.9857 177.676 95.4074 166.304 97.5885 160.664C94.7556 161.898 92.6711 161.66 91.1542 160.664M83.8254 222.936C75.7029 230.517 82.8476 244.596 87.4353 250.688C73.1758 250.327 75.1764 259.412 77.9591 264H114.51L121.73 255.426C125.34 257.908 132.967 261.383 134.591 255.426C136.216 249.47 128.499 248.131 124.438 248.206C124.137 242.566 122.949 230.517 120.602 227.449C118.256 224.38 113.458 210.376 111.352 203.758C111.126 201.051 111.442 191.529 114.51 175.104C117.579 158.678 113.984 149.608 111.803 147.126C110.524 145.246 106.654 141.429 99.6148 141.79L94.6511 135.021C92.47 134.194 88.2025 134.581 89.466 141.26L91.7222 150.059C90.3685 149.307 87.6158 148.435 87.4353 150.962C87.2824 153.104 87.9593 158.565 91.1542 160.664M83.8254 222.936C81.4939 217.446 77.4627 203.713 79.9897 192.702M83.8254 222.936C86.6833 220.229 94.3395 216.844 102.101 224.967M79.9897 192.702C71.0399 190.672 51.8317 183.316 46.5972 170.14C44.6418 164.875 42.8969 155.474 51.5609 159.987C52.1626 154.647 55.0356 146.585 61.7141 157.054C62.5414 160.814 67.5352 168.515 80.8922 169.237C84.3491 167.357 91.2412 163.01 91.1542 160.664M79.9897 192.702C81.4187 192.928 84.7279 193.018 86.5329 191.574" stroke="black" stroke-width="0.902502"/>
<path d="M91.0453 12.1898C81.3434 8.73025 56.5698 4.83445 35.0902 16.928C8.2408 32.0449 0.569534 47.3874 1.02079 68.3706H34.1877C32.3827 78.0724 28.9081 97.7921 29.4496 99.0556C29.9911 100.319 42.6111 99.5821 48.8534 99.0556C51.2669 93.0761 54.465 85.232 57.8926 76.9443C62.0243 71.7549 71.0549 61.331 74.1234 61.1505L91.9478 125.228L107.742 121.393L99.3935 37.9111L96.9116 36.9184L96.0091 36.5574C92.0827 32.9829 91.0425 30.4564 91.7179 24.8249C89.0704 23.3238 86.9798 19.2757 86.9798 19.2757C86.9798 19.2757 87.1279 17.4632 86.9798 16.928C87.8675 14.3296 88.7001 13.2619 91.0453 12.1898Z" fill="#398871"/>
<path d="M34.1877 68.3706H1.02079C0.569538 47.3874 8.2408 32.0449 35.0902 16.928C56.5698 4.83445 81.3434 8.73025 91.0453 12.1898C88.7001 13.2619 87.8675 14.3296 86.9798 16.928C87.1279 17.4632 86.9798 19.2757 86.9798 19.2757C86.9798 19.2757 89.0704 23.3238 91.7179 24.8249C91.0425 30.4564 92.0827 32.9829 96.0091 36.5574L96.9116 36.9184M34.1877 68.3706C32.3827 78.0725 28.9081 97.7921 29.4496 99.0556C29.9911 100.319 42.6111 99.5821 48.8534 99.0556C51.2669 93.0761 54.465 85.232 57.8926 76.9443M34.1877 68.3706C34.1877 64.5801 44.7169 37.7607 49.9815 24.8249M79.0872 28.8861C76.1359 33.5055 66.3205 56.566 57.8926 76.9443M57.8926 76.9443C62.0243 71.7549 71.0549 61.331 74.1234 61.1505M74.1234 61.1505L91.9478 125.228L107.742 121.393L99.3935 37.9111L96.9116 36.9184M74.1234 61.1505L96.9116 36.9184" stroke="black" stroke-width="0.902502"/>
<path d="M52.0122 159.974C53.8172 165.089 62.0751 175.452 80.6666 175.994" stroke="black" stroke-width="0.902502"/>
<path d="M102.101 149.37C102.627 148.392 103.365 146.166 102.101 145.083C100.522 143.729 100.522 149.37 102.101 149.37Z" fill="black"/>
<path d="M93.3016 138.54C95.4676 138.179 95.257 136.434 94.8809 135.607C92.1734 133.802 90.2932 135.908 89.6916 137.186C89.9924 137.788 91.1356 138.901 93.3016 138.54Z" fill="black"/>
<path d="M102.101 149.37C102.627 148.392 103.365 146.166 102.101 145.083C100.522 143.729 100.522 149.37 102.101 149.37Z" stroke="black" stroke-width="0.902502"/>
<path d="M93.3016 138.54C95.4676 138.179 95.257 136.434 94.8809 135.607C92.1734 133.802 90.2932 135.908 89.6916 137.186C89.9924 137.788 91.1356 138.901 93.3016 138.54Z" stroke="black" stroke-width="0.902502"/>
<path d="M101.875 7.90295C107.471 8.08345 107.065 12.7915 106.162 15.123L109.772 11.7386C112.029 12.1146 116.586 12.9118 116.767 13.0923C116.947 13.2728 122.407 16.928 125.115 18.733L123.535 24.5992C120.286 29.8337 115.714 33.2482 113.834 34.3011C113.292 39.3551 110.449 38.212 109.095 37.0086C107.471 37.5501 103.605 37.8359 101.875 37.9111C91.9479 37.7306 91.1206 29.2622 91.9479 25.0505C89.3908 23.5463 84.9986 19.455 87.8866 15.123C90.7746 10.791 96.405 10.3096 98.8592 10.6105C99.7166 8.55022 101.03 7.90295 101.875 7.90295Z" fill="#FFC49C"/>
<path d="M110.224 138.314C110.224 134.163 107.215 125.604 105.711 121.844L95.1066 124.551V135.381L99.8448 141.924C103.816 141.022 108.419 143.654 110.224 145.083V138.314Z" fill="#FFC49C"/>
<path d="M50.6584 128.613C51.9219 124.822 49.3799 107.329 47.9509 99.0556C44.1604 100.139 34.1878 99.5069 29.6753 99.0556C28.2313 101.041 30.7282 118.234 32.1572 126.582C33.7816 131.636 35.2407 130.042 35.7672 128.613C36.8502 128.071 37.873 121.167 38.249 117.783C37.7978 122.069 37.527 130.869 40.054 131.771C41.8416 132.41 42.5596 131.279 42.784 130.057C42.7695 130.389 42.7615 130.595 42.7615 130.643C44.5665 136.239 46.4641 132.975 47.1873 130.643L47.0484 133.351C47.7253 133.351 49.3949 132.403 50.6584 128.613Z" fill="#FFC49C"/>
<path d="M98.0398 17.1536C97.8923 14.1304 98.267 12.0334 98.8592 10.6105M98.8592 10.6105C99.7166 8.55022 101.03 7.90295 101.875 7.90295C107.471 8.08345 107.065 12.7915 106.162 15.123L109.772 11.7386C112.029 12.1146 116.586 12.9118 116.767 13.0923C116.947 13.2728 122.407 16.928 125.115 18.733L123.535 24.5992C120.286 29.8337 115.714 33.2482 113.834 34.3011C113.292 39.3551 110.449 38.212 109.095 37.0086C107.471 37.5501 103.605 37.8359 101.875 37.9111C91.9479 37.7306 91.1206 29.2622 91.9479 25.0505C89.3908 23.5463 84.9986 19.455 87.8866 15.123C90.7746 10.791 96.405 10.3096 98.8592 10.6105ZM47.9509 115.752L47.1873 130.643M47.1873 130.643L47.0484 133.351C47.7253 133.351 49.3949 132.403 50.6584 128.613C51.9219 124.822 49.3799 107.329 47.9509 99.0556C44.1604 100.139 34.1878 99.5069 29.6753 99.0556C28.2313 101.041 30.7282 118.234 32.1571 126.582C33.7817 131.636 35.2407 130.042 35.7672 128.613C36.8502 128.071 37.873 121.167 38.249 117.783C37.7978 122.069 37.527 130.869 40.054 131.771C42.581 132.674 42.9707 130.042 42.8496 128.613M47.1873 130.643C46.4641 132.975 44.5665 136.239 42.7615 130.643C42.7615 130.544 42.7956 129.773 42.8496 128.613M42.8496 128.613C42.9924 125.546 43.2748 119.757 43.4384 116.429L42.8496 128.613ZM105.711 121.844C107.215 125.604 110.224 134.163 110.224 138.314C110.224 142.466 110.224 144.557 110.224 145.083C108.419 143.654 103.816 141.022 99.8448 141.924L95.1066 135.381V124.551L105.711 121.844Z" stroke="black" stroke-width="0.902502"/>
<circle r="0.902502" transform="matrix(-1 0 0 1 114.962 29.3373)" fill="black"/>
<path d="M116.02 24.8013C117.484 24.6059 118.316 25.8625 118.572 26.6298C118.572 26.6298 118.842 27.4872 117.218 27.3067C116.138 27.1867 115.596 26.528 115.355 25.901C115.164 25.4057 115.494 24.8716 116.02 24.8013Z" fill="black"/>
<path d="M103.229 15.1229C103.229 13.9196 102.958 11.4226 101.875 11.0616M118.572 26.6298C118.316 25.8625 117.484 24.6059 116.02 24.8013C115.494 24.8716 115.164 25.4057 115.355 25.901C115.596 26.528 116.138 27.1867 117.218 27.3067C118.842 27.4872 118.572 26.6298 118.572 26.6298Z" stroke="black" stroke-width="0.902502"/>
<path d="M111.577 25.276C109.321 25.8025 105.079 28.164 106.162 33.3985" stroke="black" stroke-width="0.902502"/>
<path d="M84.4979 146.737C87.7469 145.293 92.1692 148.559 91.9435 150.138C90.3642 149.236 86.7542 149.31 86.7542 149.67C86.7542 150.122 80.6623 153.957 79.9854 152.829C79.3085 151.701 80.4366 148.542 84.4979 146.737Z" fill="#FF7156" stroke="black" stroke-width="0.902502"/>
<circle r="0.902502" transform="matrix(-1 0 0 1 97.3586 145.851)" fill="black"/>
<ellipse rx="1.35375" ry="1.57938" transform="matrix(-1 0 0 1 98.2611 152.846)" fill="#FE6F59"/>
</svg>
