<svg width="254" height="165" viewBox="0 0 254 165" fill="none" xmlns="http://www.w3.org/2000/svg">
<path d="M124.428 12.6652C126.356 12.5045 130.597 12.4242 132.139 13.3881C134.067 14.593 140.332 17.9667 141.055 17.7258C141.778 17.4848 148.767 17.0028 149.49 17.7258C150.212 18.4487 157.683 20.1356 160.816 30.7386C163.322 39.2211 165.876 41.9843 166.84 42.3056L234.555 111.708C239.375 116.848 248.58 130.889 246.845 145.927L245.881 156.048C249.737 156.931 256.291 159.759 251.665 164H181.299C180.576 162.554 179.997 158.939 183.468 156.048C182.745 156.048 181.733 155.421 183.468 152.915C185.203 150.409 192.384 148.979 195.758 148.577C189.492 141.268 177.106 124.624 177.684 116.527C175.355 131.709 169.828 162.458 166.358 164H145.875V161.108C145.955 159.984 148.381 157.638 157.442 157.253C157.561 156.423 157.685 155.537 157.813 154.602H149.49C144.863 151.71 150.453 148.738 153.827 147.613L160.816 104.478L149.49 60.379V55.8004L129.729 30.7386C127.079 27.2043 122.307 18.6415 124.428 12.6652Z" fill="#5E3535"/>
<path d="M183.468 156.048C179.997 158.939 180.576 162.554 181.299 164H251.665C256.291 159.759 249.737 156.931 245.881 156.048L246.845 145.927C248.58 130.889 239.375 116.848 234.555 111.708L166.84 42.3056C165.876 41.9843 163.322 39.2211 160.816 30.7386C157.683 20.1356 150.212 18.4487 149.49 17.7258C148.767 17.0028 141.778 17.4848 141.055 17.7258C140.332 17.9667 134.067 14.593 132.139 13.3881C130.597 12.4242 126.356 12.5045 124.428 12.6652C122.307 18.6415 127.079 27.2043 129.729 30.7386L149.49 55.8004V60.379L160.816 104.478M183.468 156.048L202.746 155.171M183.468 156.048C182.745 156.048 181.733 155.421 183.468 152.915C185.203 150.409 192.384 148.979 195.758 148.577M219.373 124.238C204.451 130.793 210.425 147.212 215.277 154.602L202.746 155.171M202.746 155.171L195.758 148.577M195.758 148.577C189.492 141.268 177.106 124.624 177.684 116.527C175.355 131.709 169.828 162.458 166.358 164H145.875V161.108C145.955 159.984 148.381 157.638 157.442 157.253C157.561 156.423 157.685 155.537 157.813 154.602M160.816 104.478L153.827 147.613C150.453 148.738 144.863 151.71 149.49 154.602H157.813M160.816 104.478C162.81 112.639 159.844 139.776 157.813 154.602" stroke="black" stroke-width="0.963916"/>
<path d="M8.81843 129.258C4.76999 118.655 6.48897 102.992 7.85452 96.4853L80.8711 70.4596L100.149 97.4492C101.499 100.534 81.4334 128.134 71.2319 141.548L45.6882 130.704L36.772 151.669C22.7952 149.501 13.879 142.512 8.81843 129.258Z" fill="#FEB326"/>
<path d="M45.6882 130.704L36.772 151.669C22.7952 149.501 13.879 142.512 8.81843 129.258C4.76999 118.655 6.48897 102.992 7.85452 96.4853L80.8711 70.4596L100.149 97.4492C101.499 100.534 81.4334 128.134 71.2319 141.548L45.6882 130.704ZM45.6882 130.704C45.6882 130.222 60.1469 102.269 69.3041 99.1361M25.9279 114.8C29.2213 109.257 36.2418 98.1722 37.9769 98.1722" stroke="black" stroke-width="0.963916"/>
<path d="M99.3194 4.99427C99.1266 2.29531 103.737 2.26318 106.067 2.58449L115.706 6.68112L122.212 13.4285C122.453 13.4285 122.791 14.537 122.212 18.971C121.634 23.4051 117.152 26.602 114.983 27.6463C115.369 31.6947 112.895 31.261 111.609 30.538C111.77 30.8593 110.163 31.5983 102.452 31.9839C94.7408 32.3695 92.331 25.8791 92.09 22.5857L87.0295 28.8512L102.452 45.7197L98.9713 49.0934L107.513 57.7686L134.502 40.1772C135.707 38.7313 138.262 36.4661 138.84 38.9723C139.418 41.4785 139.081 42.9083 138.84 43.3099L147.515 36.8035C148.961 36.5625 151.515 36.8035 150.166 39.6952C151.933 39.7756 155.034 40.6109 153.299 43.3099C154.825 43.2296 157.347 43.8401 155.227 46.9246L152.214 49.0934C153.218 49.5754 154.624 50.8766 152.214 52.2261C150.327 53.672 146.407 56.5156 145.828 56.3228C143.097 57.4473 136.43 61.5279 131.611 68.8537C126.068 75.3601 114.983 88.5176 114.983 89.0959C114.983 89.8188 102.934 104.519 91.3671 92.4696C90.6442 92.4696 75.7035 74.8782 73.7756 67.6488L95.2228 56.8047L94.1518 53.3732L98.9713 49.0934L102.452 45.7197L87.0295 28.8512C86.0656 26.5378 79.5591 21.7825 76.4264 19.694L88.2344 14.3924L89.4393 9.33188L99.3194 11.0187C99.3997 10.1352 99.5122 7.69324 99.3194 4.99427Z" fill="#FFC49C"/>
<path d="M87.0295 28.8512C86.0656 26.5378 79.5591 21.7825 76.4264 19.694L88.2344 14.3924L89.4393 9.33188L99.3194 11.0187C99.3997 10.1352 99.5122 7.69324 99.3194 4.99427C99.1266 2.29531 103.737 2.26318 106.067 2.58449L115.706 6.68112L122.212 13.4285C122.453 13.4285 122.791 14.537 122.212 18.971C121.634 23.4051 117.152 26.602 114.983 27.6463C115.369 31.6947 112.895 31.261 111.609 30.538C111.77 30.8593 110.163 31.5983 102.452 31.9839C94.7408 32.3695 92.331 25.8791 92.09 22.5857L87.0295 28.8512ZM87.0295 28.8512L102.452 45.7197L98.9713 49.0934M95.2228 56.8047L104.139 73.1913M95.2228 56.8047L73.7756 67.6488C75.7035 74.8781 90.6442 92.4696 91.3671 92.4696C102.934 104.519 114.983 89.8188 114.983 89.0959C114.983 88.5176 126.068 75.3601 131.611 68.8537C136.43 61.5279 143.097 57.4473 145.828 56.3228C146.407 56.5156 150.327 53.672 152.214 52.2261C154.624 50.8766 153.218 49.5754 152.214 49.0934M95.2228 56.8047L94.1518 53.3732L98.9713 49.0934M104.139 73.1913L130.647 49.3344L134.502 40.1772M104.139 73.1913L100.042 77.047M134.502 40.1772C135.707 38.7313 138.262 36.4661 138.84 38.9723C139.418 41.4785 139.081 42.9083 138.84 43.3099L147.515 36.8035C148.961 36.5625 151.515 36.8035 150.166 39.6952M134.502 40.1772L107.513 57.7686M150.166 39.6952L143.66 45.7197M150.166 39.6952C151.933 39.7756 155.034 40.6109 153.299 43.3099M153.299 43.3099L146.551 48.6114M153.299 43.3099C154.825 43.2296 157.347 43.8401 155.227 46.9246L152.214 49.0934M149.202 51.2622L152.214 49.0934M98.9713 49.0934L107.513 57.7686M107.513 57.7686L102.452 60.6604" stroke="black" stroke-width="0.963916"/>
<path d="M119.187 3.70856C115.138 -0.532665 109.307 1.13812 106.897 2.50367C108.262 3.2266 110.801 4.86524 110.03 5.63637C109.258 6.40751 110.351 8.04616 110.994 8.7691C114.271 12.8175 120.392 13.8296 123.042 13.8297C124.97 11.1789 124.247 9.0101 119.187 3.70856Z" fill="black"/>
<path d="M85.9317 3.70856C86.7029 4.67248 95.5709 4.75279 99.9085 4.67246V11.1789C96.2456 11.1789 93.5627 17.123 92.6791 20.0951C85.4498 9.49204 84.9678 2.50367 85.9317 3.70856Z" fill="black"/>
<path d="M119.187 3.70856C115.138 -0.532665 109.307 1.13812 106.897 2.50367C108.262 3.2266 110.801 4.86524 110.03 5.63637C109.258 6.40751 110.351 8.04616 110.994 8.7691C114.271 12.8175 120.392 13.8296 123.042 13.8297C124.97 11.1789 124.247 9.0101 119.187 3.70856Z" stroke="black" stroke-width="0.963916"/>
<path d="M85.9317 3.70856C86.7029 4.67248 95.5709 4.75279 99.9085 4.67246V11.1789C96.2456 11.1789 93.5627 17.123 92.6791 20.0951C85.4498 9.49204 84.9678 2.50367 85.9317 3.70856Z" stroke="black" stroke-width="0.963916"/>
<path d="M45.4472 131.186L64.9665 138.898L70.991 141.549L75.0876 136.729L76.2925 147.573C81.5137 148.698 91.2332 153.453 88.3414 163.478H74.1237H36.049L36.7719 151.429C39.4625 144.602 44.9644 130.996 45.4472 131.186Z" fill="#FF6F55"/>
<path d="M64.9665 138.898L45.4472 131.186C44.9644 130.996 39.4625 144.602 36.7719 151.429L36.049 163.478H74.1237M64.9665 138.898L60.6289 149.26M64.9665 138.898L70.991 141.549L75.0876 136.729L76.2925 147.573M60.6289 149.26C58.2191 148.698 53.1103 147.573 51.9536 147.573M60.6289 149.26C65.3681 150.384 74.702 154.802 74.1237 163.478M74.1237 163.478H88.3414C91.2332 153.453 81.5137 148.698 76.2925 147.573M76.2925 147.573C74.9269 147.412 71.9549 147.525 70.991 149.26" stroke="black" stroke-width="0.963916"/>
<path d="M38.4588 36.4815C56.5804 20.8661 72.1959 19.0507 77.7384 20.0949C80.7908 22.0228 87.0883 26.5532 87.8595 29.2521L103.041 46.1207L95.0511 53.591C95.4162 54.8212 95.7544 55.9603 96.0528 56.9647L74.3647 68.0497L76.7745 73.1103C75.2322 72.3392 65.0468 76.8053 60.1469 79.1348C54.5562 79.5203 43.3587 92.3083 38.4588 98.6541C26.6509 97.9311 2.84215 96.2925 2.07102 95.5213C1.1071 94.5574 0.625144 91.6657 1.34808 89.7378C2.07102 87.81 15.8068 56.0008 38.4588 36.4815Z" fill="#FFF0D3"/>
<path d="M74.3647 68.0497L76.7745 73.1103C75.2322 72.3392 65.0468 76.8053 60.1469 79.1348C54.5562 79.5203 43.3587 92.3083 38.4588 98.6541C26.6509 97.9311 2.84215 96.2925 2.07102 95.5213C1.1071 94.5574 0.625144 91.6657 1.34808 89.7378C2.07102 87.81 15.8068 56.0008 38.4588 36.4815C56.5804 20.8661 72.1959 19.0507 77.7384 20.0949C80.7908 22.0228 87.0884 26.5532 87.8595 29.2521M74.3647 68.0497L66.1714 72.1464L55.8093 46.1207M74.3647 68.0497L96.0528 56.9647C95.7544 55.9603 95.4162 54.8212 95.0511 53.591M87.8595 29.2521L103.041 46.1207L95.0511 53.591M87.8595 29.2521C88.5351 31.617 92.4669 44.8847 95.0511 53.591" stroke="black" stroke-width="0.963916"/>
<path d="M104.246 4.91357C104.889 4.91357 105.981 5.63651 105.21 8.52826" stroke="black" stroke-width="0.963916"/>
<path d="M112.68 21.7821C113.323 21.9428 114.415 22.7942 113.644 24.9148" stroke="black" stroke-width="0.963916"/>
<path d="M111.475 18.4082C110.029 19.6934 107.138 22.4566 107.138 23.2278C107.138 23.9989 107.459 26.1195 107.62 27.0834" stroke="black" stroke-width="0.963916"/>
<path d="M117.741 19.3723C116.97 17.8301 115.492 18.0871 114.849 18.4084C114.849 18.794 115.331 19.8543 115.572 20.3362C115.765 21.1074 117.098 21.4608 117.741 21.5411C118.062 21.4608 118.512 20.9146 117.741 19.3723Z" fill="black" stroke="black" stroke-width="0.963916"/>
<path d="M172.684 48.2897L178.709 53.8322C178.285 54.562 177.746 55.3787 177.095 56.242C175.955 57.7554 174.474 59.4118 172.684 60.9936C171.611 61.9424 170.427 62.8642 169.138 63.7123C167.645 64.6954 166.012 65.5793 164.25 66.291C162.313 67.0734 160.219 67.6476 157.984 67.9165C155.931 68.1634 153.759 68.1527 151.478 67.809C151.285 67.4234 150.112 62.5074 149.55 60.0976C151.269 60.5342 153.755 60.7576 156.538 60.3712C157.854 60.1886 159.236 59.8696 160.635 59.3726C161.838 58.945 163.054 58.3857 164.25 57.668C165.573 56.8741 166.872 55.8864 168.105 54.6688C169.057 53.7291 169.969 52.6525 170.822 51.4224C171.481 50.4723 172.105 49.4306 172.684 48.2897Z" fill="#FFF0D3"/>
<path d="M156.538 60.3712C153.755 60.7576 151.269 60.5342 149.55 60.0976C150.112 62.5074 151.285 67.4234 151.478 67.809C153.759 68.1527 155.931 68.1634 157.984 67.9165M156.538 60.3712L157.984 67.9165M156.538 60.3712C157.854 60.1886 159.236 59.8696 160.635 59.3726M157.984 67.9165C160.219 67.6476 162.313 67.0734 164.25 66.291M160.635 59.3726L164.25 66.291M160.635 59.3726C161.838 58.945 163.054 58.3857 164.25 57.668M164.25 66.291C166.012 65.5793 167.645 64.6954 169.138 63.7123M164.25 57.668L169.138 63.7123M164.25 57.668C165.573 56.8741 166.872 55.8864 168.105 54.6688M169.138 63.7123C170.427 62.8642 171.611 61.9424 172.684 60.9936M168.105 54.6688L172.684 60.9936M168.105 54.6688C169.057 53.7291 169.969 52.6525 170.822 51.4224M172.684 60.9936C174.474 59.4118 175.955 57.7554 177.095 56.242M170.822 51.4224C171.481 50.4723 172.105 49.4306 172.684 48.2897L178.709 53.8322C178.285 54.562 177.746 55.3787 177.095 56.242M170.822 51.4224L177.095 56.242" stroke="black" stroke-width="0.963916"/>
<path d="M147.148 71.3658C145.413 69.0524 147.871 63.0119 149.317 60.2808C150.474 60.2808 151.566 67.6708 151.968 71.3658C151.968 72.7539 148.883 73.6792 147.148 71.3658Z" fill="#FEB326" stroke="black" stroke-width="0.963916"/>
<path d="M124.247 16.2395C128.296 16.2395 128.183 13.669 127.621 12.3838H124.247V16.2395Z" fill="black"/>
<path d="M145.935 21.3C145.132 21.9426 143.767 23.5652 144.73 24.9147C145.935 26.6015 147.14 22.2639 145.935 21.3Z" fill="black"/>
<path d="M129.549 22.0229C130.593 22.9869 133.163 24.6255 135.091 23.4688M139.188 21.3C140.072 21.7016 141.694 22.9869 141.116 24.9147M127.621 12.3838C128.183 13.669 128.296 16.2395 124.247 16.2395V12.3838H127.621ZM145.935 21.3C145.132 21.9426 143.767 23.5652 144.73 24.9147C145.935 26.6015 147.14 22.2639 145.935 21.3Z" stroke="black" stroke-width="0.963916"/>
<path d="M145.336 28.9535C144.533 38.5926 145.384 57.9192 155.216 58.1119C165.048 58.3047 164.775 44.5368 163.409 37.6287" stroke="black" stroke-width="0.963916"/>
<ellipse cx="139.522" cy="28.5062" rx="1.74026" ry="0.994432" transform="rotate(35.3986 139.522 28.5062)" fill="#DA5D60"/>
</svg>
