<svg width="135" height="118" viewBox="0 0 135 118" fill="none" xmlns="http://www.w3.org/2000/svg">
<path d="M117.669 10.3856C97.7426 -4.22721 76.1555 9.83208 67.8528 18.6883C51.2472 -6.21987 13.0547 0.422319 4.752 25.3305C-1.89018 45.2571 11.9477 67.9512 19.6969 76.8074C22.3538 84.7781 52.9078 105.59 67.8528 115C80.0301 106.697 107.042 87.1028 117.669 75.1469C130.953 60.202 142.577 28.6516 117.669 10.3856Z" fill="#92A9DB" stroke="black" stroke-width="4.29868"/>
<path d="M46.266 26.9908L9.6424 61.1189C12.9635 76.0638 46.1744 105.954 62.8715 111.679L97.743 78.4678C108.37 66.5118 100.419 61.1189 94.3302 59.4583C104.958 43.5171 91.6543 40.8287 84.4586 41.9357C85.787 22.0092 72.8348 26.9908 66.1926 31.9725C63.5357 17.3597 51.8012 22.5627 46.266 26.9908Z" fill="white" stroke="black" stroke-width="4.29868"/>
<path d="M62.8712 53.5596C61.2107 53.5596 55.1219 53.0061 52.9079 51.8991C41.2841 41.9358 31.3208 63.5229 41.2841 66.844C49.2547 69.5008 53.4614 77.9143 54.5684 81.7889C56.229 85.11 61.8748 90.4237 71.1739 85.11C80.4729 79.7962 77.2626 72.9326 74.495 70.1651C74.495 70.1651 71.1739 66.844 71.1739 65.1834C72.5023 57.2128 66.1923 54.1131 62.8712 53.5596Z" fill="#DA5D60" stroke="black" stroke-width="4.29868"/>
<path d="M92.7612 65.1834C86.1191 63.5229 81.6909 69.058 81.1374 71.8256C80.5838 75.7002 85.1956 79.6369 89.4401 76.8073C95.137 73.0092 96.0823 66.844 92.7612 65.1834Z" fill="#DA5D60" stroke="black" stroke-width="4.29868"/>
<path d="M89.4855 48.8831C82.8434 47.2226 78.4152 52.7578 77.8617 55.5253C77.3081 59.3999 81.9199 63.3367 86.1644 60.507C91.8614 56.7089 92.8067 50.5437 89.4855 48.8831Z" fill="#DA5D60" stroke="black" stroke-width="4.29868"/>
<path d="M76.0795 35.9233C69.2507 35.4309 65.8414 41.6456 65.7725 44.4672C65.8942 48.3792 71.1148 51.4633 74.8088 47.9453C79.767 43.2233 79.6369 36.9874 76.0795 35.9233Z" fill="#DA5D60" stroke="black" stroke-width="4.29868"/>
<path d="M56.1529 29.2808C49.3241 28.7884 45.9148 35.0032 45.8459 37.8247C45.9676 41.7368 51.1882 44.8209 54.8822 41.3028C59.8404 36.5809 59.7104 30.3449 56.1529 29.2808Z" fill="#DA5D60" stroke="black" stroke-width="4.29868"/>
</svg>
